# xmcd CD database file
#
# Track frame offsets:
#	150
#	23685
#	47182
#	70640
#
# Disc length: 1253 seconds
#
# Revision: 0
# Processed by: cddbd v1.5PL3 Copyright (c) Steve Scherf et al.
# Submitted via: CDex 1.50beta9
#
DISCID=2a04e304
DTITLE=今井美樹 - Goodbye Yesterday
DYEAR=1999
DGENRE=JPop
TTITLE0=Goodbye Yesterday
TTITLE1=4月になれば
TTITLE2=Goodbye Yesterday（INSTRUMENTAL）
TTITLE3=4月になれば（INSTRUMENTAL）
EXTD=YEAR: 1999
EXTT0=
EXTT1=
EXTT2=
EXTT3=
PLAYORDER=
